<svg id="Layer_1" enable-background="new 0 0 512 512" height="512" viewBox="0 0 512 512" width="512" xmlns="http://www.w3.org/2000/svg"><g><path d="m256 111.256c30.713 0 55.7-24.987 55.7-55.7-3.06-73.894-108.351-73.872-111.4 0 0 30.713 24.987 55.7 55.7 55.7z"/><path d="m424.167 328.689c0-30.713-24.987-55.7-55.7-55.7-73.894 3.06-73.873 108.352 0 111.4 30.713 0 55.7-24.987 55.7-55.7z"/><path d="m368.467 384.389c-52.567 0-95.333 42.767-95.333 95.333v17.133c0 8.284 6.716 15 15 15h160.666c8.284 0 15-6.716 15-15v-17.133c0-52.566-42.766-95.333-95.333-95.333z"/><path d="m199.233 328.689c0-30.713-24.987-55.7-55.7-55.7-73.894 3.06-73.873 108.352 0 111.4 30.714 0 55.7-24.987 55.7-55.7z"/><path d="m256 111.256c-42.875 0-79.227 28.453-91.175 67.467h182.349c-11.948-39.014-48.299-67.467-91.174-67.467z"/><path d="m497 208.723h-482c-8.284 0-15 6.716-15 15v160.666c0 8.284 6.716 15 15 15h32.418c7.278-8.691 15.705-16.389 25.053-22.847-38.321-55.811 2.872-133.954 71.064-133.552 68.185-.404 109.388 77.755 71.062 133.552 9.346 6.457 17.763 14.158 25.038 22.847h32.732c7.275-8.689 15.693-16.39 25.038-22.847-38.321-55.811 2.872-133.954 71.064-133.552 68.185-.404 109.388 77.755 71.062 133.552 9.348 6.458 17.775 14.156 25.053 22.847h32.416c8.284 0 15-6.716 15-15v-160.666c0-8.284-6.716-15-15-15z"/><path d="m143.534 384.389c-52.567 0-95.333 42.767-95.333 95.333v17.133c0 8.284 6.716 15 15 15h160.667c8.284 0 15-6.716 15-15v-17.133c-.001-52.566-42.767-95.333-95.334-95.333z"/></g></svg>