<svg id="Capa_1" enable-background="new 0 0 512 512" height="512" viewBox="0 0 512 512" width="512" xmlns="http://www.w3.org/2000/svg"><g><path d="m497 67.04h-280.901v342.249h280.901c8.284 0 15-6.716 15-15v-312.249c0-8.284-6.716-15-15-15zm-194.69 274.504h-20.721c-8.284 0-15-6.716-15-15s6.716-15 15-15h20.721c8.284 0 15 6.716 15 15s-6.716 15-15 15zm0-51.344h-20.721c-8.284 0-15-6.716-15-15s6.716-15 15-15h20.721c8.284 0 15 6.716 15 15s-6.716 15-15 15zm72.1 51.344h-20.72c-8.284 0-15-6.716-15-15s6.716-15 15-15h20.72c8.284 0 15 6.716 15 15s-6.716 15-15 15zm0-51.344h-20.72c-8.284 0-15-6.716-15-15s6.716-15 15-15h20.72c8.284 0 15 6.716 15 15s-6.716 15-15 15zm72.1 51.344h-20.72c-8.284 0-15-6.716-15-15s6.716-15 15-15h20.72c8.284 0 15 6.716 15 15s-6.716 15-15 15zm0-51.344h-20.72c-8.284 0-15-6.716-15-15s6.716-15 15-15h20.72c8.284 0 15 6.716 15 15s-6.716 15-15 15zm15-79.239c0 8.284-6.716 15-15 15h-164.921c-8.284 0-15-6.716-15-15v-61.177c0-8.284 6.716-15 15-15h164.921c8.284 0 15 6.716 15 15z"/><path d="m15 67.04c-8.284 0-15 6.716-15 15v312.249c0 8.284 6.716 15 15 15h18.48v-342.249z"/><path d="m186.099 67.04h-122.619v362.92c0 8.284 6.716 15 15 15h92.619c8.284 0 15-6.716 15-15z"/><path d="m296.589 164.784h134.921v31.177h-134.921z"/></g></svg>